<?xml version="1.0" encoding="UTF-8" standalone="no"?>
<!DOCTYPE svg PUBLIC "-//W3C//DTD SVG 1.1//EN"
 "http://www.w3.org/Graphics/SVG/1.1/DTD/svg11.dtd">
<!-- Generated by graphviz version 2.38.0 (20140413.2041)
 -->
<!-- Title: G Pages: 1 -->
<svg width="995pt" height="995pt"
 viewBox="0.00 0.00 994.85 994.85" xmlns="http://www.w3.org/2000/svg" xmlns:xlink="http://www.w3.org/1999/xlink">
<g id="graph0" class="graph" transform="scale(1 1) rotate(0) translate(4 990.853)">
<title>G</title>
<polygon fill="white" stroke="none" points="-4,4 -4,-990.853 990.847,-990.853 990.847,4 -4,4"/>
<!-- components_ai -->
<g id="node1" class="node"><title>components_ai</title>
<ellipse fill="#728137" stroke="black" cx="279.527" cy="-456.426" rx="47.1863" ry="18"/>
<text text-anchor="middle" x="279.527" y="-453.926" font-family="Helvetica,sans-Serif" font-size="10.00" fill="#ffffff">components.ai</text>
</g>
<!-- options -->
<g id="node2" class="node"><title>options</title>
<ellipse fill="#c86523" stroke="black" cx="488.527" cy="-306" rx="28.0137" ry="18"/>
<text text-anchor="middle" x="488.527" y="-303.5" font-family="Helvetica,sans-Serif" font-size="10.00" fill="#ffffff">options</text>
</g>
<!-- components_ai&#45;&gt;options -->
<g id="edge1" class="edge"><title>components_ai&#45;&gt;options</title>
<path fill="none" stroke="black" d="M301.106,-440.101C339.665,-412.718 420.259,-355.482 462.079,-325.783"/>
<polygon fill="black" stroke="black" points="464.258,-328.528 470.385,-319.884 460.205,-322.821 464.258,-328.528"/>
</g>
<!-- combat_functions -->
<g id="node10" class="node"><title>combat_functions</title>
<ellipse fill="#206f83" stroke="black" cx="311.527" cy="-162" rx="54.9924" ry="18"/>
<text text-anchor="middle" x="311.527" y="-159.5" font-family="Helvetica,sans-Serif" font-size="10.00" fill="#ffffff">combat_functions</text>
</g>
<!-- options&#45;&gt;combat_functions -->
<g id="edge12" class="edge"><title>options&#45;&gt;combat_functions</title>
<path fill="none" stroke="black" d="M471.555,-291.384C440.987,-266.861 376.413,-215.056 339.315,-185.293"/>
<polygon fill="black" stroke="black" points="341.386,-182.468 331.396,-178.94 337.006,-187.928 341.386,-182.468"/>
</g>
<!-- game_map -->
<g id="node13" class="node"><title>game_map</title>
<ellipse fill="#b03a69" stroke="black" cx="498.527" cy="-234" rx="38.0276" ry="18"/>
<text text-anchor="middle" x="498.527" y="-231.5" font-family="Helvetica,sans-Serif" font-size="10.00" fill="#ffffff">game_map</text>
</g>
<!-- options&#45;&gt;game_map -->
<g id="edge26" class="edge"><title>options&#45;&gt;game_map</title>
<path fill="none" stroke="black" d="M490.948,-288.055C492.049,-280.346 493.38,-271.027 494.618,-262.364"/>
<polygon fill="black" stroke="black" points="498.109,-262.67 496.059,-252.275 491.18,-261.68 498.109,-262.67"/>
</g>
<!-- game -->
<g id="node16" class="node"><title>game</title>
<ellipse fill="#4b3172" stroke="black" cx="352.527" cy="-18" rx="27" ry="18"/>
<text text-anchor="middle" x="352.527" y="-15.5" font-family="Helvetica,sans-Serif" font-size="10.00" fill="#ffffff">game</text>
</g>
<!-- options&#45;&gt;game -->
<g id="edge38" class="edge"><title>options&#45;&gt;game</title>
<path fill="none" stroke="black" d="M582.527,-233C627.006,-190.176 729.507,-218.537 702.527,-163"/>
<path fill="none" stroke="black" d="M508.004,-292.622C527.833,-279.55 558.928,-257.721 582.527,-235"/>
</g>
<!-- ui_control -->
<g id="node18" class="node"><title>ui_control</title>
<ellipse fill="#783a88" stroke="black" cx="765.527" cy="-234" rx="34.9638" ry="18"/>
<text text-anchor="middle" x="765.527" y="-231.5" font-family="Helvetica,sans-Serif" font-size="10.00" fill="#ffffff">ui_control</text>
</g>
<!-- options&#45;&gt;ui_control -->
<g id="edge51" class="edge"><title>options&#45;&gt;ui_control</title>
<path fill="none" stroke="black" d="M515.091,-299.775C557.863,-291.151 644.493,-272.805 716.527,-252 720.359,-250.893 724.332,-249.66 728.282,-248.378"/>
<polygon fill="black" stroke="black" points="729.593,-251.631 737.962,-245.134 727.369,-244.993 729.593,-251.631"/>
</g>
<!-- components -->
<g id="node3" class="node"><title>components</title>
<ellipse fill="#b8db2f" stroke="black" cx="463.527" cy="-637.426" rx="41.4139" ry="18"/>
<text text-anchor="middle" x="463.527" y="-634.926" font-family="Helvetica,sans-Serif" font-size="10.00" fill="#000000">components</text>
</g>
<!-- components&#45;&gt;options -->
<g id="edge2" class="edge"><title>components&#45;&gt;options</title>
<path fill="none" stroke="black" d="M544.527,-564.426C560.258,-479.152 521.975,-378.995 501.054,-332.768"/>
<polygon fill="black" stroke="black" points="504.135,-331.094 496.757,-323.491 497.783,-334.036 504.135,-331.094"/>
<path fill="none" stroke="black" d="M491.42,-623.899C512.411,-612.477 538.549,-593.277 544.527,-566.426"/>
</g>
<!-- entity -->
<g id="node9" class="node"><title>entity</title>
<ellipse fill="#65c823" stroke="black" cx="409.527" cy="-565.426" rx="27" ry="18"/>
<text text-anchor="middle" x="409.527" y="-562.926" font-family="Helvetica,sans-Serif" font-size="10.00" fill="#000000">entity</text>
</g>
<!-- components&#45;&gt;entity -->
<g id="edge21" class="edge"><title>components&#45;&gt;entity</title>
<path fill="none" stroke="black" d="M451.002,-620.191C444.09,-611.23 435.379,-599.939 427.728,-590.02"/>
<polygon fill="black" stroke="black" points="430.491,-587.872 421.612,-582.092 424.949,-592.148 430.491,-587.872"/>
</g>
<!-- components&#45;&gt;combat_functions -->
<g id="edge14" class="edge"><title>components&#45;&gt;combat_functions</title>
<path fill="none" stroke="black" d="M460.634,-619.236C457.466,-601.215 451.968,-572.139 445.527,-547.426 426.076,-472.806 409.597,-457.414 392.527,-382.213"/>
</g>
<!-- enums -->
<g id="node4" class="node"><title>enums</title>
<ellipse fill="#f910cb" stroke="black" cx="414.527" cy="-824.853" rx="27.1572" ry="18"/>
<text text-anchor="middle" x="414.527" y="-822.353" font-family="Helvetica,sans-Serif" font-size="10.00" fill="#ffffff">enums</text>
</g>
<!-- enums&#45;&gt;components_ai -->
<g id="edge8" class="edge"><title>enums&#45;&gt;components_ai</title>
<path fill="none" stroke="black" d="M354.527,-564.426C349.49,-535.883 323.461,-539.569 316.527,-511.426"/>
<path fill="none" stroke="black" d="M440.527,-769.853C444.616,-751.786 427.57,-750.538 419.527,-733.853 384.864,-661.949 368.399,-645.035 354.527,-566.426"/>
</g>
<!-- enums&#45;&gt;options -->
<g id="edge3" class="edge"><title>enums&#45;&gt;options</title>
<path fill="none" stroke="black" d="M570.527,-636.426C560.316,-604.848 537.315,-598.821 544.527,-566.426"/>
<path fill="none" stroke="black" d="M646.527,-711.64C635.656,-666.016 584.956,-683.053 570.527,-638.426"/>
<path fill="none" stroke="black" d="M441.483,-823.036C506.986,-819.66 667.663,-802.346 646.527,-713.64"/>
</g>
<!-- fov_aoc -->
<g id="node5" class="node"><title>fov_aoc</title>
<ellipse fill="#ccae33" stroke="black" cx="259.527" cy="-565.426" rx="28.6898" ry="18"/>
<text text-anchor="middle" x="259.527" y="-562.926" font-family="Helvetica,sans-Serif" font-size="10.00" fill="#000000">fov_aoc</text>
</g>
<!-- enums&#45;&gt;fov_aoc -->
<g id="edge24" class="edge"><title>enums&#45;&gt;fov_aoc</title>
<path fill="none" stroke="black" d="M390.132,-816.753C349.774,-804.786 272.717,-780.924 264.527,-770.853 223.039,-719.834 238.97,-635.623 250.949,-592.962"/>
<polygon fill="black" stroke="black" points="254.328,-593.88 253.798,-583.298 247.613,-591.901 254.328,-593.88"/>
</g>
<!-- components_fighter -->
<g id="node6" class="node"><title>components_fighter</title>
<ellipse fill="#99b03a" stroke="black" cx="320.527" cy="-712.64" rx="51.7379" ry="21.4286"/>
<text text-anchor="middle" x="320.527" y="-715.64" font-family="Helvetica,sans-Serif" font-size="10.00" fill="#000000">components.</text>
<text text-anchor="middle" x="320.527" y="-704.64" font-family="Helvetica,sans-Serif" font-size="10.00" fill="#000000">fighter</text>
</g>
<!-- enums&#45;&gt;components_fighter -->
<g id="edge32" class="edge"><title>enums&#45;&gt;components_fighter</title>
<path fill="none" stroke="black" d="M440.527,-769.853C442.401,-761.572 402.211,-744.149 367.847,-730.882"/>
<polygon fill="black" stroke="black" points="368.939,-727.552 358.348,-727.261 366.445,-734.093 368.939,-727.552"/>
<path fill="none" stroke="black" d="M424.816,-807.882C430.721,-797.726 437.541,-784.048 440.527,-770.853"/>
</g>
<!-- enums&#45;&gt;combat_functions -->
<g id="edge18" class="edge"><title>enums&#45;&gt;combat_functions</title>
<path fill="none" stroke="black" d="M392.527,-380.213C378.692,-308.284 343.591,-228.846 324.452,-188.929"/>
<polygon fill="black" stroke="black" points="327.579,-187.356 320.065,-179.888 321.282,-190.412 327.579,-187.356"/>
<path fill="none" stroke="black" d="M354.527,-564.426C337.858,-509.911 366.3,-494.107 378.527,-438.426 384.049,-413.279 395.014,-407.84 392.527,-382.213"/>
</g>
<!-- components_injuries -->
<g id="node12" class="node"><title>components_injuries</title>
<ellipse fill="#98ac49" stroke="black" cx="122.527" cy="-712.64" rx="51.7379" ry="21.4286"/>
<text text-anchor="middle" x="122.527" y="-715.64" font-family="Helvetica,sans-Serif" font-size="10.00" fill="#000000">components.</text>
<text text-anchor="middle" x="122.527" y="-704.64" font-family="Helvetica,sans-Serif" font-size="10.00" fill="#000000">injuries</text>
</g>
<!-- enums&#45;&gt;components_injuries -->
<g id="edge30" class="edge"><title>enums&#45;&gt;components_injuries</title>
<path fill="none" stroke="black" d="M389.832,-817.229C342.38,-804.45 241.785,-777.104 226.527,-770.853 203.045,-761.232 178.091,-747.629 158.513,-736.1"/>
<polygon fill="black" stroke="black" points="160.301,-733.092 149.921,-730.971 156.713,-739.102 160.301,-733.092"/>
</g>
<!-- components_weapon -->
<g id="node14" class="node"><title>components_weapon</title>
<ellipse fill="#98ac49" stroke="black" cx="480.527" cy="-712.64" rx="51.7379" ry="21.4286"/>
<text text-anchor="middle" x="480.527" y="-715.64" font-family="Helvetica,sans-Serif" font-size="10.00" fill="#000000">components.</text>
<text text-anchor="middle" x="480.527" y="-704.64" font-family="Helvetica,sans-Serif" font-size="10.00" fill="#000000">weapon</text>
</g>
<!-- enums&#45;&gt;components_weapon -->
<g id="edge35" class="edge"><title>enums&#45;&gt;components_weapon</title>
<path fill="none" stroke="black" d="M440.527,-769.853C442.931,-759.229 448.675,-749.06 455.082,-740.363"/>
<polygon fill="black" stroke="black" points="457.846,-742.51 461.341,-732.508 452.371,-738.148 457.846,-742.51"/>
</g>
<!-- enums&#45;&gt;game -->
<g id="edge42" class="edge"><title>enums&#45;&gt;game</title>
<path fill="none" stroke="black" d="M570.527,-636.426C552.118,-579.493 620.527,-571.262 620.527,-511.426 620.527,-511.426 620.527,-511.426 620.527,-380.213 620.527,-338.369 618.11,-323.948 639.527,-288 658.254,-256.565 693.162,-270.372 702.527,-235"/>
<path fill="none" stroke="black" d="M702.527,-233C709.505,-202.682 716.121,-190.984 702.527,-163"/>
</g>
<!-- combat_control -->
<g id="node17" class="node"><title>combat_control</title>
<ellipse fill="#49ac49" stroke="black" cx="352.527" cy="-90" rx="48.7185" ry="18"/>
<text text-anchor="middle" x="352.527" y="-87.5" font-family="Helvetica,sans-Serif" font-size="10.00" fill="#000000">combat_control</text>
</g>
<!-- enums&#45;&gt;combat_control -->
<g id="edge47" class="edge"><title>enums&#45;&gt;combat_control</title>
<path fill="none" stroke="black" d="M440.527,-769.853C451.949,-723.587 514.063,-772.798 541.527,-733.853 552.394,-718.443 544.293,-710.079 541.527,-691.426 504.235,-439.936 463.166,-382.658 375.527,-144 372.296,-135.202 368.36,-125.766 364.663,-117.33"/>
<polygon fill="black" stroke="black" points="367.763,-115.688 360.491,-107.983 361.371,-118.541 367.763,-115.688"/>
</g>
<!-- enums&#45;&gt;ui_control -->
<g id="edge53" class="edge"><title>enums&#45;&gt;ui_control</title>
<path fill="none" stroke="black" d="M646.527,-711.64C672.063,-533.238 737.604,-502.043 765.527,-324 768.739,-303.521 768.584,-280.065 767.709,-262.375"/>
<polygon fill="black" stroke="black" points="771.191,-261.956 767.096,-252.184 764.203,-262.377 771.191,-261.956"/>
</g>
<!-- fov_aoc&#45;&gt;components_ai -->
<g id="edge4" class="edge"><title>fov_aoc&#45;&gt;components_ai</title>
<path fill="none" stroke="black" d="M283.081,-554.853C300.708,-545.983 321.056,-531.183 316.527,-511.426"/>
</g>
<!-- fov_aoc&#45;&gt;combat_functions -->
<g id="edge13" class="edge"><title>fov_aoc&#45;&gt;combat_functions</title>
<path fill="none" stroke="black" d="M118.527,-510.426C102.151,-493.494 111.466,-479.899 118.527,-457.426"/>
</g>
<!-- fov_aoc&#45;&gt;game -->
<g id="edge39" class="edge"><title>fov_aoc&#45;&gt;game</title>
<path fill="none" stroke="black" d="M80.5269,-89C87.6141,-41.893 242.334,-25.9164 315.199,-20.9918"/>
<polygon fill="black" stroke="black" points="315.572,-24.4751 325.328,-20.343 315.125,-17.4894 315.572,-24.4751"/>
<path fill="none" stroke="black" d="M118.527,-510.426C99.2359,-490.48 80.5269,-409.218 80.5269,-382.213 80.5269,-382.213 80.5269,-382.213 80.5269,-233 80.5269,-169.889 71.1375,-153.409 80.5269,-91"/>
<path fill="none" stroke="black" d="M231.09,-561.806C198.823,-557.257 146.996,-544.888 118.527,-511.426"/>
</g>
<!-- components_fighter&#45;&gt;components_ai -->
<g id="edge5" class="edge"><title>components_fighter&#45;&gt;components_ai</title>
<path fill="none" stroke="black" d="M316.527,-636.426C330.817,-582.74 328.94,-565.577 316.527,-511.426"/>
<path fill="none" stroke="black" d="M315.866,-691.345C313.284,-676.417 311.504,-655.791 316.527,-638.426"/>
</g>
<!-- components_fighter&#45;&gt;entity -->
<g id="edge22" class="edge"><title>components_fighter&#45;&gt;entity</title>
<path fill="none" stroke="black" d="M316.527,-636.426C320.619,-621.054 354.852,-598.114 380.605,-582.729"/>
<polygon fill="black" stroke="black" points="382.445,-585.708 389.297,-577.627 378.901,-579.671 382.445,-585.708"/>
</g>
<!-- utilities -->
<g id="node7" class="node"><title>utilities</title>
<ellipse fill="#06f9c8" stroke="black" cx="286.527" cy="-896.853" rx="27.8353" ry="18"/>
<text text-anchor="middle" x="286.527" y="-894.353" font-family="Helvetica,sans-Serif" font-size="10.00" fill="#000000">utilities</text>
</g>
<!-- utilities&#45;&gt;components_ai -->
<g id="edge6" class="edge"><title>utilities&#45;&gt;components_ai</title>
<path fill="none" stroke="black" d="M316.527,-510.426C313.95,-499.966 308.102,-489.898 301.8,-481.399"/>
<polygon fill="black" stroke="black" points="304.431,-479.086 295.45,-473.466 298.967,-483.46 304.431,-479.086"/>
<path fill="none" stroke="black" d="M202.527,-823.853C181.516,-779.604 202.527,-762.623 202.527,-713.64 202.527,-713.64 202.527,-713.64 202.527,-636.426 202.527,-595.98 195.179,-578.114 221.527,-547.426 250.94,-513.168 327.329,-555.267 316.527,-511.426"/>
</g>
<!-- utilities&#45;&gt;components_fighter -->
<g id="edge31" class="edge"><title>utilities&#45;&gt;components_fighter</title>
<path fill="none" stroke="black" d="M202.527,-823.853C184.863,-786.653 255.498,-804.992 278.527,-770.853"/>
<path fill="none" stroke="black" d="M278.527,-769.853C284.929,-760.362 292.29,-750.265 299.043,-741.285"/>
<polygon fill="black" stroke="black" points="302.018,-743.155 305.281,-733.075 296.444,-738.92 302.018,-743.155"/>
</g>
<!-- utilities&#45;&gt;combat_functions -->
<g id="edge15" class="edge"><title>utilities&#45;&gt;combat_functions</title>
<path fill="none" stroke="black" d="M202.527,-823.853C183.414,-785.725 152.806,-800.89 122.527,-770.853"/>
<path fill="none" stroke="black" d="M122.527,-769.853C100.178,-747.682 79.96,-759.372 61.5269,-733.853 17.6758,-673.144 27.6232,-639.818 42.5269,-566.426"/>
<path fill="none" stroke="black" d="M42.5269,-564.426C41.7169,-506.101 101.042,-513.075 118.527,-457.426"/>
<path fill="none" stroke="black" d="M118.527,-455.426C124.981,-423.534 109.483,-413.47 118.527,-382.213"/>
<path fill="none" stroke="black" d="M265.312,-884.941C245.181,-873.304 216.053,-852.836 202.527,-825.853"/>
</g>
<!-- utilities&#45;&gt;components_injuries -->
<g id="edge29" class="edge"><title>utilities&#45;&gt;components_injuries</title>
<path fill="none" stroke="black" d="M122.527,-769.853C115.76,-763.14 114.156,-753.367 114.761,-743.845"/>
<polygon fill="black" stroke="black" points="118.252,-744.153 116.145,-733.769 111.317,-743.2 118.252,-744.153"/>
</g>
<!-- utilities&#45;&gt;game_map -->
<g id="edge28" class="edge"><title>utilities&#45;&gt;game_map</title>
<path fill="none" stroke="black" d="M684.527,-711.64C661.22,-613.824 566.079,-380.015 525.527,-288 521.593,-279.075 516.887,-269.52 512.513,-261.017"/>
<polygon fill="black" stroke="black" points="515.509,-259.193 507.776,-251.951 509.306,-262.435 515.509,-259.193"/>
<path fill="none" stroke="black" d="M646.527,-823.853C685.743,-789.989 688.117,-765.328 684.527,-713.64"/>
</g>
<!-- utilities&#45;&gt;components_weapon -->
<g id="edge34" class="edge"><title>utilities&#45;&gt;components_weapon</title>
<path fill="none" stroke="black" d="M646.527,-823.853C684.311,-777.763 596.057,-743.792 534.295,-726.503"/>
<polygon fill="black" stroke="black" points="535.202,-723.123 524.633,-723.872 533.363,-729.877 535.202,-723.123"/>
<path fill="none" stroke="black" d="M313.921,-893.998C389.084,-888.385 596.289,-869.235 646.527,-825.853"/>
</g>
<!-- chargen_functions -->
<g id="node15" class="node"><title>chargen_functions</title>
<ellipse fill="#4c75b3" stroke="black" cx="286.527" cy="-824.853" rx="55.8461" ry="18"/>
<text text-anchor="middle" x="286.527" y="-822.353" font-family="Helvetica,sans-Serif" font-size="10.00" fill="#ffffff">chargen_functions</text>
</g>
<!-- utilities&#45;&gt;chargen_functions -->
<g id="edge36" class="edge"><title>utilities&#45;&gt;chargen_functions</title>
<path fill="none" stroke="black" d="M286.527,-878.549C286.527,-870.836 286.527,-861.565 286.527,-852.965"/>
<polygon fill="black" stroke="black" points="290.027,-852.957 286.527,-842.957 283.027,-852.957 290.027,-852.957"/>
</g>
<!-- utilities&#45;&gt;ui_control -->
<g id="edge52" class="edge"><title>utilities&#45;&gt;ui_control</title>
<path fill="none" stroke="black" d="M684.527,-711.64C689.772,-500.309 1001.4,-507.541 934.527,-307"/>
</g>
<!-- global_vars -->
<g id="node8" class="node"><title>global_vars</title>
<ellipse fill="#22e771" stroke="black" cx="286.527" cy="-968.853" rx="38.0276" ry="18"/>
<text text-anchor="middle" x="286.527" y="-966.353" font-family="Helvetica,sans-Serif" font-size="10.00" fill="#000000">global_vars</text>
</g>
<!-- global_vars&#45;&gt;components_ai -->
<g id="edge7" class="edge"><title>global_vars&#45;&gt;components_ai</title>
<path fill="none" stroke="black" d="M4.52686,-711.64C-1.25983,-687.354 85.4612,-526.545 104.527,-510.426 137.987,-482.139 186.237,-468.948 223.603,-462.797"/>
<polygon fill="black" stroke="black" points="224.471,-466.205 233.832,-461.242 223.419,-459.285 224.471,-466.205"/>
</g>
<!-- global_vars&#45;&gt;utilities -->
<g id="edge25" class="edge"><title>global_vars&#45;&gt;utilities</title>
<path fill="none" stroke="black" d="M286.527,-950.549C286.527,-942.836 286.527,-933.565 286.527,-924.965"/>
<polygon fill="black" stroke="black" points="290.027,-924.957 286.527,-914.957 283.027,-924.957 290.027,-924.957"/>
</g>
<!-- global_vars&#45;&gt;combat_functions -->
<g id="edge16" class="edge"><title>global_vars&#45;&gt;combat_functions</title>
<path fill="none" stroke="black" d="M4.52686,-711.64C-7.03863,-638.793 5.18728,-617.395 28.5269,-547.426 54.9856,-468.107 95.287,-462.535 118.527,-382.213"/>
<path fill="none" stroke="black" d="M256.31,-957.735C181.216,-930.496 -7.03652,-848.434 4.52686,-713.64"/>
<path fill="none" stroke="black" d="M118.527,-380.213C129.656,-288.372 223.885,-216.644 276.442,-183.345"/>
<polygon fill="black" stroke="black" points="278.472,-186.204 285.121,-177.955 274.779,-180.257 278.472,-186.204"/>
</g>
<!-- global_vars&#45;&gt;game -->
<g id="edge41" class="edge"><title>global_vars&#45;&gt;game</title>
<path fill="none" stroke="black" d="M972.527,-305C965.721,-293.84 959.69,-294.8 948.527,-288 889.109,-251.806 871.591,-247.442 809.527,-216 762.186,-192.017 725.717,-210.735 702.527,-163"/>
</g>
<!-- global_vars&#45;&gt;ui_control -->
<g id="edge55" class="edge"><title>global_vars&#45;&gt;ui_control</title>
<path fill="none" stroke="black" d="M972.527,-305C956.98,-275.246 863.992,-253.175 808.071,-242.386"/>
<polygon fill="black" stroke="black" points="808.563,-238.917 798.088,-240.503 807.266,-245.796 808.563,-238.917"/>
<path fill="none" stroke="black" d="M324.879,-968.157C469.347,-968.289 972.527,-959.181 972.527,-825.853 972.527,-825.853 972.527,-825.853 972.527,-455.426 972.527,-389.459 1003.08,-365.467 972.527,-307"/>
</g>
<!-- entity&#45;&gt;components_ai -->
<g id="edge9" class="edge"><title>entity&#45;&gt;components_ai</title>
<path fill="none" stroke="black" d="M388.033,-554.246C361.135,-541.208 318.343,-519.351 316.527,-511.426"/>
</g>
<!-- entity&#45;&gt;combat_functions -->
<g id="edge19" class="edge"><title>entity&#45;&gt;combat_functions</title>
<path fill="none" stroke="black" d="M409.118,-547.288C409.355,-536.694 410.56,-522.963 414.527,-511.426"/>
<path fill="none" stroke="black" d="M414.527,-510.426C422.82,-486.308 395.56,-482.75 392.527,-457.426"/>
<path fill="none" stroke="black" d="M392.527,-455.426C388.657,-423.118 399.73,-413.945 392.527,-382.213"/>
</g>
<!-- entity&#45;&gt;game_map -->
<g id="edge27" class="edge"><title>entity&#45;&gt;game_map</title>
<path fill="none" stroke="black" d="M392.527,-455.426C391.184,-435.748 441.519,-304.997 451.527,-288 457.897,-277.18 466.662,-266.561 474.898,-257.703"/>
<polygon fill="black" stroke="black" points="477.506,-260.041 481.925,-250.412 472.466,-255.183 477.506,-260.041"/>
</g>
<!-- entity&#45;&gt;game -->
<g id="edge45" class="edge"><title>entity&#45;&gt;game</title>
<path fill="none" stroke="black" d="M414.527,-510.426C417.441,-501.952 576.071,-241.216 582.527,-235"/>
</g>
<!-- combat_functions&#45;&gt;components_ai -->
<g id="edge10" class="edge"><title>combat_functions&#45;&gt;components_ai</title>
<path fill="none" stroke="black" d="M309.663,-180.033C304.332,-228.747 288.99,-368.949 282.492,-428.333"/>
<polygon fill="black" stroke="black" points="278.994,-428.119 281.386,-438.44 285.953,-428.88 278.994,-428.119"/>
</g>
<!-- combat_functions&#45;&gt;game -->
<g id="edge44" class="edge"><title>combat_functions&#45;&gt;game</title>
<path fill="none" stroke="black" d="M259.889,-155.877C190.108,-147.534 74.947,-128.088 80.5269,-91"/>
</g>
<!-- combat_functions&#45;&gt;combat_control -->
<g id="edge48" class="edge"><title>combat_functions&#45;&gt;combat_control</title>
<path fill="none" stroke="black" d="M321.452,-144.055C326.286,-135.801 332.202,-125.701 337.569,-116.538"/>
<polygon fill="black" stroke="black" points="340.659,-118.187 342.693,-107.789 334.619,-114.649 340.659,-118.187"/>
</g>
<!-- game_messages -->
<g id="node11" class="node"><title>game_messages</title>
<ellipse fill="#ce3b3b" stroke="black" cx="702.527" cy="-306" rx="53.6367" ry="18"/>
<text text-anchor="middle" x="702.527" y="-303.5" font-family="Helvetica,sans-Serif" font-size="10.00" fill="#ffffff">game_messages</text>
</g>
<!-- game_messages&#45;&gt;combat_functions -->
<g id="edge11" class="edge"><title>game_messages&#45;&gt;combat_functions</title>
<path fill="none" stroke="black" d="M680.171,-289.512C650.629,-269.72 596.37,-235.675 545.527,-216 488.225,-193.826 419.268,-179.609 371.112,-171.541"/>
<polygon fill="black" stroke="black" points="371.597,-168.074 361.163,-169.912 370.466,-174.982 371.597,-168.074"/>
</g>
<!-- game_messages&#45;&gt;game -->
<g id="edge37" class="edge"><title>game_messages&#45;&gt;game</title>
<path fill="none" stroke="black" d="M700.127,-287.998C698.663,-273.626 697.861,-252.622 702.527,-235"/>
</g>
<!-- game_messages&#45;&gt;ui_control -->
<g id="edge49" class="edge"><title>game_messages&#45;&gt;ui_control</title>
<path fill="none" stroke="black" d="M717.457,-288.411C725.611,-279.351 735.836,-267.99 744.757,-258.078"/>
<polygon fill="black" stroke="black" points="747.479,-260.285 751.567,-250.511 742.276,-255.602 747.479,-260.285"/>
</g>
<!-- components_injuries&#45;&gt;combat_functions -->
<g id="edge17" class="edge"><title>components_injuries&#45;&gt;combat_functions</title>
<path fill="none" stroke="black" d="M101.342,-693.262C73.6971,-666.936 30.2085,-616.158 42.5269,-566.426"/>
</g>
<!-- game_map&#45;&gt;combat_functions -->
<g id="edge20" class="edge"><title>game_map&#45;&gt;combat_functions</title>
<path fill="none" stroke="black" d="M469.308,-222.063C438.886,-210.675 390.868,-192.7 355.788,-179.568"/>
<polygon fill="black" stroke="black" points="356.854,-176.23 346.262,-176.002 354.4,-182.786 356.854,-176.23"/>
</g>
<!-- game_map&#45;&gt;game -->
<g id="edge46" class="edge"><title>game_map&#45;&gt;game</title>
<path fill="none" stroke="black" d="M702.527,-161C701.685,-93.6706 476.948,-42.982 388.085,-25.5654"/>
<polygon fill="black" stroke="black" points="388.673,-22.1144 378.191,-23.6541 387.345,-28.9874 388.673,-22.1144"/>
<path fill="none" stroke="black" d="M531.874,-225.094C591.704,-210.458 710.381,-179.166 702.527,-163"/>
</g>
<!-- components_weapon&#45;&gt;entity -->
<g id="edge23" class="edge"><title>components_weapon&#45;&gt;entity</title>
<path fill="none" stroke="black" d="M451.07,-694.972C437.077,-685.358 421.664,-671.899 413.527,-655.426 404.078,-636.299 403.65,-611.947 405.265,-593.553"/>
<polygon fill="black" stroke="black" points="408.757,-593.825 406.399,-583.495 401.801,-593.04 408.757,-593.825"/>
</g>
<!-- chargen_functions&#45;&gt;components_fighter -->
<g id="edge33" class="edge"><title>chargen_functions&#45;&gt;components_fighter</title>
<path fill="none" stroke="black" d="M278.236,-806.75C274.15,-795.647 271.45,-781.345 278.527,-770.853"/>
</g>
<!-- combat_control&#45;&gt;game -->
<g id="edge40" class="edge"><title>combat_control&#45;&gt;game</title>
<path fill="none" stroke="black" d="M352.527,-71.6966C352.527,-63.9827 352.527,-54.7125 352.527,-46.1124"/>
<polygon fill="black" stroke="black" points="356.027,-46.1043 352.527,-36.1043 349.027,-46.1044 356.027,-46.1043"/>
</g>
<!-- ui_control&#45;&gt;game -->
<g id="edge43" class="edge"><title>ui_control&#45;&gt;game</title>
<path fill="none" stroke="black" d="M747.58,-218.281C733.031,-205.301 713.243,-185.06 702.527,-163"/>
</g>
<!-- bearlibterminal_terminal -->
<g id="node19" class="node"><title>bearlibterminal_terminal</title>
<ellipse fill="#5353b6" stroke="black" cx="847.527" cy="-381.213" rx="58.8803" ry="21.4286"/>
<text text-anchor="middle" x="847.527" y="-384.213" font-family="Helvetica,sans-Serif" font-size="10.00" fill="#ffffff">bearlibterminal.</text>
<text text-anchor="middle" x="847.527" y="-373.213" font-family="Helvetica,sans-Serif" font-size="10.00" fill="#ffffff">terminal</text>
</g>
<!-- bearlibterminal_terminal&#45;&gt;ui_control -->
<g id="edge50" class="edge"><title>bearlibterminal_terminal&#45;&gt;ui_control</title>
<path fill="none" stroke="black" d="M934.527,-305C918.218,-256.088 854.623,-241.061 810.278,-236.613"/>
<polygon fill="black" stroke="black" points="810.561,-233.124 800.298,-235.755 809.961,-240.098 810.561,-233.124"/>
<path fill="none" stroke="black" d="M888.356,-365.793C915.066,-353.624 943.488,-333.873 934.527,-307"/>
</g>
<!-- bearlibterminal -->
<g id="node20" class="node"><title>bearlibterminal</title>
<ellipse fill="#5353b6" stroke="black" cx="859.527" cy="-306" rx="47.1863" ry="18"/>
<text text-anchor="middle" x="859.527" y="-303.5" font-family="Helvetica,sans-Serif" font-size="10.00" fill="#ffffff">bearlibterminal</text>
</g>
<!-- bearlibterminal&#45;&gt;ui_control -->
<g id="edge54" class="edge"><title>bearlibterminal&#45;&gt;ui_control</title>
<path fill="none" stroke="black" d="M838.665,-289.465C825.191,-279.431 807.515,-266.268 792.915,-255.396"/>
<polygon fill="black" stroke="black" points="794.841,-252.466 784.73,-249.3 790.66,-258.08 794.841,-252.466"/>
</g>
</g>
</svg>
